<svg width="368" height="72" viewBox="0 0 368 72" fill="none" xmlns="http://www.w3.org/2000/svg">
<rect width="24" height="24" fill="#5C5CFF"/>
<rect width="24" height="24" transform="translate(24)" fill="#5C5CFF" fill-opacity="0.9"/>
<rect width="24" height="24" transform="translate(48)" fill="#5C5CFF" fill-opacity="0.75"/>
<rect width="24" height="24" transform="translate(72)" fill="#5C5CFF" fill-opacity="0.8"/>
<rect width="24" height="24" transform="translate(96)" fill="#5C5CFF" fill-opacity="0.85"/>
<rect width="24" height="24" transform="translate(120)" fill="#5C5CFF" fill-opacity="0.9"/>
<rect width="24" height="24" transform="translate(144)" fill="#5C5CFF" fill-opacity="0.8"/>
<rect width="24" height="24" transform="translate(168)" fill="#5C5CFF" fill-opacity="0.75"/>
<rect width="24" height="24" transform="translate(192)" fill="#5C5CFF" fill-opacity="0.75"/>
<rect width="24" height="24" transform="translate(216)" fill="#5C5CFF" fill-opacity="0.75"/>
<rect width="24" height="24" transform="translate(240)" fill="#5C5CFF" fill-opacity="0.75"/>
<rect width="24" height="24" transform="translate(264)" fill="#5C5CFF" fill-opacity="0.75"/>
<rect width="24" height="24" transform="translate(288)" fill="#5C5CFF" fill-opacity="0.75"/>
<rect width="24" height="24" transform="translate(312)" fill="#5C5CFF" fill-opacity="0.7"/>
<rect width="24" height="24" transform="translate(336)" fill="#5C5CFF" fill-opacity="0.75"/>
<rect width="24" height="24" transform="translate(360)" fill="#5C5CFF" fill-opacity="0.7"/>
<rect width="24" height="24" transform="translate(0 24)" fill="#5C5CFF" fill-opacity="0.8"/>
<rect width="24" height="24" transform="translate(24 24)" fill="#5C5CFF" fill-opacity="0.75"/>
<rect width="24" height="24" transform="translate(48 24)" fill="#5C5CFF" fill-opacity="0.75"/>
<rect width="24" height="24" transform="translate(72 24)" fill="#5C5CFF" fill-opacity="0.75"/>
<rect width="24" height="24" transform="translate(96 24)" fill="#5C5CFF" fill-opacity="0.8"/>
<rect width="24" height="24" transform="translate(120 24)" fill="#5C5CFF" fill-opacity="0.85"/>
<rect width="24" height="24" transform="translate(144 24)" fill="#5C5CFF" fill-opacity="0.75"/>
<rect width="24" height="24" transform="translate(168 24)" fill="#5C5CFF" fill-opacity="0.75"/>
<rect width="24" height="24" transform="translate(192 24)" fill="#5C5CFF" fill-opacity="0.75"/>
<rect width="24" height="24" transform="translate(216 24)" fill="#5C5CFF" fill-opacity="0.75"/>
<rect width="24" height="24" transform="translate(240 24)" fill="#5C5CFF" fill-opacity="0.75"/>
<rect width="24" height="24" transform="translate(264 24)" fill="#5C5CFF" fill-opacity="0.75"/>
<rect width="24" height="24" transform="translate(288 24)" fill="#5C5CFF" fill-opacity="0.7"/>
<rect width="24" height="24" transform="translate(312 24)" fill="#5C5CFF" fill-opacity="0.65"/>
<rect width="24" height="24" transform="translate(336 24)" fill="#5C5CFF" fill-opacity="0.7"/>
<rect width="24" height="24" transform="translate(360 24)" fill="#5C5CFF" fill-opacity="0.65"/>
<rect width="24" height="24" transform="translate(0 48)" fill="#5C5CFF" fill-opacity="0.75"/>
<rect width="24" height="24" transform="translate(24 48)" fill="#5C5CFF" fill-opacity="0.75"/>
<rect width="24" height="24" transform="translate(48 48)" fill="#5C5CFF" fill-opacity="0.75"/>
<rect width="24" height="24" transform="translate(72 48)" fill="#5C5CFF" fill-opacity="0.75"/>
<rect width="24" height="24" transform="translate(96 48)" fill="#5C5CFF" fill-opacity="0.75"/>
<rect width="24" height="24" transform="translate(120 48)" fill="#5C5CFF" fill-opacity="0.75"/>
<rect width="24" height="24" transform="translate(144 48)" fill="#5C5CFF" fill-opacity="0.75"/>
<rect width="24" height="24" transform="translate(168 48)" fill="#5C5CFF" fill-opacity="0.75"/>
<rect width="24" height="24" transform="translate(192 48)" fill="#5C5CFF" fill-opacity="0.75"/>
<rect width="24" height="24" transform="translate(216 48)" fill="#5C5CFF" fill-opacity="0.75"/>
<rect width="24" height="24" transform="translate(240 48)" fill="#5C5CFF" fill-opacity="0.75"/>
<rect width="24" height="24" transform="translate(264 48)" fill="#5C5CFF" fill-opacity="0.7"/>
<rect width="24" height="24" transform="translate(288 48)" fill="#5C5CFF" fill-opacity="0.65"/>
<rect width="24" height="24" transform="translate(312 48)" fill="#5C5CFF" fill-opacity="0.6"/>
<rect width="24" height="24" transform="translate(336 48)" fill="#5C5CFF" fill-opacity="0.65"/>
<rect width="24" height="24" transform="translate(360 48)" fill="#5C5CFF" fill-opacity="0.6"/>
</svg>
