<svg width="24" height="19" viewBox="0 0 24 19" fill="none" xmlns="http://www.w3.org/2000/svg">
<path d="M13 12.5H11V14.5H13V12.5Z" fill="white"/>
<path fill-rule="evenodd" clip-rule="evenodd" d="M6 0.5V18.5H18V0.5H6ZM16 2.5V16.5H8V2.5H16Z" fill="white"/>
<path d="M20 4.5H22V6.5H20V4.5Z" fill="white"/>
<path d="M22 8.5V6.5H24V8.5H22Z" fill="white"/>
<path d="M22 10.5H20V8.5H22V10.5Z" fill="white"/>
<path d="M22 12.5V10.5H24V12.5H22Z" fill="white"/>
<path d="M22 12.5V14.5H20V12.5H22Z" fill="white"/>
<path d="M2 14.5H4V12.5H2V10.5H4V8.5H2V6.5H4V4.5H2V6.5H0V8.5H2V10.5H0V12.5H2V14.5Z" fill="white"/>
</svg>
