<svg width="636" height="102" viewBox="0 0 636 102" fill="none" xmlns="http://www.w3.org/2000/svg">
<path d="M514.842 101.733V0.795044H558.615V81.5455H635.222V101.733H514.842Z" fill="white"/>
<path d="M394.545 101.733V91.6392H383.602V10.8888H394.545V0.795044H503.984V20.9826H427.378V41.1701H460.208V61.3577H427.378V81.5455H503.984V101.733H394.545Z" fill="white"/>
<path d="M252.363 101.733V71.4515H263.306V61.3577H274.252V41.1701H263.306V31.0763H252.363V0.795044H285.196V10.8888H296.139V20.9826H307.082V31.0763H318.026V20.9826H328.969V10.8888H339.913V0.795044H372.745V31.0763H361.8V41.1701H350.856V61.3577H361.8V71.4515H372.745V101.733H339.913V91.6392H328.969V81.5455H318.026V71.4515H307.082V81.5455H296.139V91.6392H285.196V101.733H252.363Z" fill="white"/>
<path d="M132.027 20.9826V0.795044H241.464V20.9826H208.633V81.5455H241.464V101.733H132.027V81.5455H164.858V20.9826H132.027Z" fill="white"/>
<path d="M44.5625 61.3577V101.733H0.787842V0.795044H44.5625H77.3937H110.225V10.8888H121.168V51.2639H110.225V61.3577H44.5625ZM44.5625 20.9826V41.1701H77.3937V20.9826H44.5625Z" fill="white"/>
</svg>
