<svg width="634" height="102" viewBox="0 0 634 102" fill="none" xmlns="http://www.w3.org/2000/svg">
<path d="M557.327 60.8422V101.217H513.719V0.279297H557.327H590.031H622.738V10.3731H633.639V40.6544H622.738V60.8422H633.639V101.217H590.031V60.8422H557.327ZM557.327 20.4669V40.6544H590.031V20.4669H557.327Z" fill="white"/>
<path d="M426.589 60.8422V101.217H382.981V10.3731H393.883V0.279297H459.294H492V10.3731H502.902V101.217H459.294V60.8422H426.589ZM426.589 20.4669V40.6544H459.294V20.4669H426.589Z" fill="white"/>
<path d="M273.918 91.1235V101.217H230.311V0.279297H273.918V50.7482H284.82V40.6544H295.724V30.5606H306.625V40.6544H317.526V50.7482H328.428V0.279297H372.036V101.217H328.428V91.1235H317.526V81.0297H306.625V70.936H295.724V81.0297H284.82V91.1235H273.918Z" fill="white"/>
<path d="M163.948 20.4669V10.3731H174.016V0.279297H214.29V20.4669H204.222V30.5606H194.152V40.6544H184.084V50.7482H174.016V60.8422H163.948V70.936H153.879V81.0297H143.809V91.1235H133.741V101.217H93.4675V81.0297H103.537V70.936H113.605V60.8422H123.673V50.7482H133.741V40.6544H143.809V30.5606H153.879V20.4669H163.948Z" fill="white"/>
<path d="M70.5066 20.4669V10.3731H80.5751V0.279297H120.848V20.4669H110.78V30.5606H100.712V40.6544H90.6436V50.7482H80.5751V60.8422H70.5066V70.936H60.4379V81.0297H50.3694V91.1235H40.3009V101.217H0.0268555V81.0297H10.0954V70.936H20.1639V60.8422H30.2324V50.7482H40.3009V40.6544H50.3694V30.5606H60.4379V20.4669H70.5066Z" fill="white"/>
</svg>
